<svg width="36" height="36" viewBox="0 0 36 36" fill="none" xmlns="http://www.w3.org/2000/svg">
<path d="M21.5444 4.36047C16.6771 5.75941 11.8092 7.15947 6.94189 8.55785C7.20528 8.94264 7.45006 9.33985 7.6754 9.7481C12.4915 8.26591 17.3082 6.78372 22.1249 5.30266C21.9471 4.98091 21.7536 4.66704 21.5444 4.36047Z" fill="#878E94"/>
<path d="M22.9499 7.10095L8.71924 12.0228C8.88405 12.4576 9.03424 12.8992 9.17261 13.3464C13.8841 11.6128 18.5973 9.88083 23.3082 8.14833C23.1991 7.79576 23.0796 7.44648 22.9499 7.10095Z" fill="#878E94"/>
<path d="M9.8208 15.8068C9.92711 16.2686 10.0239 16.7349 10.1172 17.2029L24.0402 11.205C23.9664 10.8358 23.8884 10.4676 23.8062 10.1002C19.1437 12.0026 14.4834 13.905 9.8208 15.8068Z" fill="#878E94"/>
<path d="M34.4408 18.6497C33.1718 17.2592 32.4501 15.6127 31.9551 13.8583C30.4211 14.7262 28.9693 15.5475 27.5974 16.3249C26.0955 11.0002 26.5056 4.7745 21.4431 1.125L1.125 5.76731C9.7155 11.9576 7.3935 27.9906 13.5231 34.0116C14.0355 34.515 15.9553 35.4673 18.6238 34.3648C22.7593 32.6559 21.2434 30.7176 33.9154 21.4796C35.0331 20.664 35.1281 19.4152 34.4408 18.6497ZM13.8943 24.0806C14.5884 26.5416 19.2668 27.8747 18.459 31.5388C17.9685 33.7669 15.2134 34.2174 14.2622 33.2623C11.7591 30.7502 10.7235 26.2299 9.65475 21.4155C8.41781 15.8445 7.14431 10.1059 3.39469 6.327L21.1978 2.26013C24.2831 4.71881 24.9463 8.38238 25.6466 12.2529C25.9228 13.7801 26.217 15.345 26.6614 16.8553L13.8943 24.0806Z" fill="#878E94"/>
</svg>
