<svg width="36" height="36" viewBox="0 0 36 36" fill="none" xmlns="http://www.w3.org/2000/svg">
<path d="M18 16.5C20.4853 16.5 22.5 14.4853 22.5 12C22.5 9.51472 20.4853 7.5 18 7.5C15.5147 7.5 13.5 9.51472 13.5 12C13.5 14.4853 15.5147 16.5 18 16.5Z" stroke="#878E94" stroke-width="2" stroke-linecap="round"/>
<path d="M22.9019 12C23.2998 11.311 23.955 10.8082 24.7236 10.6022C25.4921 10.3963 26.3109 10.5041 27 10.9019C27.6891 11.2998 28.1919 11.955 28.3979 12.7235C28.6037 13.4921 28.496 14.311 28.0982 15C27.7002 15.6891 27.045 16.1919 26.2764 16.3979C25.508 16.6037 24.6891 16.496 24 16.0982C23.3109 15.7002 22.8081 15.045 22.6022 14.2765C22.3964 13.5079 22.5041 12.6891 22.9019 12Z" stroke="#878E94" stroke-width="2"/>
<path d="M7.90193 12C8.29976 11.311 8.95501 10.8082 9.72355 10.6022C10.4921 10.3963 11.311 10.5041 12 10.9019C12.6891 11.2998 13.1919 11.955 13.3978 12.7235C13.6037 13.4921 13.4959 14.311 13.0981 15C12.7003 15.6891 12.045 16.1919 11.2765 16.3979C10.5079 16.6037 9.68906 16.496 9.00001 16.0982C8.31095 15.7002 7.80815 15.045 7.60223 14.2765C7.3963 13.5079 7.5041 12.6891 7.90193 12Z" stroke="#878E94" stroke-width="2"/>
<path d="M28.8008 26.5V27.5H27.9072L27.9707 27.4873L27.7734 26.5068C27.773 26.5046 27.7719 26.5022 27.7715 26.5H28.8008ZM31.5977 26.2334C31.5347 26.443 31.4302 26.6321 31.293 26.7969C31.1558 26.9616 30.9869 27.1012 30.8008 27.2129V26.5156L31.4141 26.2979L31.415 26.2988L31.5977 26.2334ZM24.4912 23.6426C24.6818 23.9252 24.8491 24.2124 24.9941 24.5H24.3223V25.4258C24.1373 24.9866 23.9028 24.5409 23.6055 24.1152L23.6836 24.0566C23.9015 23.8911 24.1634 23.7444 24.4912 23.6426ZM26.5 20.5713C29.0325 20.9444 30.423 22.7162 31.165 24.2646L30.2246 24.5977C30.2225 24.5967 30.22 24.5966 30.2178 24.5957C29.9214 23.9929 29.5275 23.3835 28.9912 22.8652C28.3469 22.2427 27.5235 21.7738 26.5 21.5879V20.5713ZM24.5 20.6738C24.4654 20.6447 24.4289 20.6176 24.3936 20.5889C24.4288 20.583 24.4643 20.5776 24.5 20.5723V20.6738Z" fill="#33363F" stroke="#878E94" stroke-width="2"/>
<path d="M8.22803 26.5C8.22759 26.5022 8.22651 26.5047 8.22607 26.5068L8.02881 27.4873L8.09229 27.5H7.19873V26.5H8.22803ZM4.58545 26.2979V26.2988L5.19873 26.5156V27.2129C5.01266 27.1012 4.84371 26.9616 4.70654 26.7969C4.56931 26.6321 4.46483 26.443 4.40186 26.2334L4.58545 26.2979ZM11.5073 23.6426C11.8357 23.7444 12.0978 23.891 12.3159 24.0566L12.3931 24.1152C12.0953 24.5416 11.8623 24.9889 11.6772 25.4287V24.5H11.0054C11.1503 24.2126 11.3169 23.9251 11.5073 23.6426ZM9.49951 21.5879C8.47623 21.7739 7.65347 22.2428 7.00928 22.8652C6.47295 23.3835 6.07719 23.9919 5.78076 24.5947C5.7785 24.5957 5.77618 24.5966 5.77393 24.5977L4.8335 24.2637C5.57545 22.7153 6.96738 20.9445 9.49951 20.5713V21.5879ZM11.4995 20.5723C11.5348 20.5775 11.5701 20.5821 11.605 20.5879C11.5697 20.6166 11.5341 20.6447 11.4995 20.6738V20.5723Z" fill="#33363F" stroke="#878E94" stroke-width="2"/>
<path d="M17.9998 21C23.357 21 24.8876 24.8268 25.3249 27.0133C25.4873 27.8256 24.8282 28.5 23.9998 28.5H11.9998C11.1714 28.5 10.5122 27.8256 10.6747 27.0133C11.1119 24.8268 12.6425 21 17.9998 21Z" stroke="#878E94" stroke-width="2" stroke-linecap="round"/>
</svg>
