<svg width="29" height="29" viewBox="0 0 29 29" fill="none" xmlns="http://www.w3.org/2000/svg">
<path d="M9.6665 12.6875H19.3332" stroke="#878E94" stroke-width="2" stroke-linecap="round"/>
<path d="M9.6665 16.9166H16.3123" stroke="#878E94" stroke-width="2" stroke-linecap="round"/>
<path d="M20.5415 4.03316C18.7642 3.00505 16.7007 2.41663 14.4998 2.41663C7.82639 2.41663 2.4165 7.82652 2.4165 14.5C2.4165 16.4329 2.87038 18.2598 3.67735 19.8801C3.89181 20.3106 3.96318 20.8027 3.83886 21.2673L3.11916 23.9572C2.80674 25.1248 3.87497 26.193 5.04263 25.8806L7.73243 25.161C8.19709 25.0366 8.68922 25.108 9.11977 25.3224C10.74 26.1294 12.5669 26.5833 14.4998 26.5833C21.1732 26.5833 26.5832 21.1733 26.5832 14.5C26.5832 12.2991 25.9947 10.2356 24.9667 8.45829" stroke="#878E94" stroke-width="2" stroke-linecap="round"/>
</svg>
