<svg width="36" height="32" viewBox="0 0 36 32" fill="none" xmlns="http://www.w3.org/2000/svg">
<path fill-rule="evenodd" clip-rule="evenodd" d="M12.4509 0.169963C12.178 0.267335 11.8141 0.529792 11.4701 0.877523C10.7487 1.60684 10.6165 2.04687 10.6165 3.72044V4.96648L6.24905 4.99555L1.88158 5.02453L1.35072 5.32543C0.77383 5.65248 0.269037 6.29145 0.099164 6.90983C0.0391294 7.12799 0.00032879 8.89699 3.92337e-05 11.4245C-0.000539879 15.5143 0.00264537 15.5833 0.200895 15.7662C0.311795 15.8685 0.583206 15.998 0.804137 16.0543L1.20594 16.1565L1.2542 23.128C1.30758 30.8344 1.27032 30.3984 1.94122 31.1708C2.11998 31.3766 2.48376 31.6474 2.74957 31.7726L3.23284 32L18.0002 31.9988C32.6434 31.9977 32.7712 31.996 33.2019 31.7991C33.7336 31.5562 34.2119 31.1059 34.4893 30.5872C34.6963 30.2001 34.6983 30.1414 34.7462 23.1784L34.7945 16.1599L35.2752 16.036C35.5396 15.9678 35.8111 15.8358 35.8785 15.7427C35.9731 15.6119 36.0008 14.5957 36 11.2746L35.999 6.97588L35.7718 6.48258C35.6463 6.21017 35.357 5.82702 35.1255 5.62672C34.3932 4.99311 34.2451 4.97575 29.577 4.97575H25.4082L25.3651 3.58541C25.3302 2.46329 25.2841 2.10941 25.1255 1.75104C24.8334 1.09071 24.3461 0.588332 23.6957 0.277287L23.1157 0L18.0002 0.00761055C13.5897 0.0141476 12.825 0.0364907 12.4509 0.169963ZM12.7599 1.52859C12.585 1.61562 12.3353 1.87095 12.2049 2.09595C11.9869 2.47197 11.9678 2.60437 11.9678 3.74035V4.97575H18.0002H24.0326V3.82562C24.0326 2.82663 24.0041 2.61832 23.8155 2.24093C23.696 2.00189 23.4507 1.70724 23.2703 1.58606L22.9424 1.36575L18.0101 1.36799C13.6573 1.36995 13.0404 1.38878 12.7599 1.52859ZM2.05241 6.48639C1.8809 6.56171 1.65302 6.76855 1.54598 6.94593C1.3598 7.25473 1.3514 7.43074 1.35111 11.0333L1.35072 14.798L2.147 14.9954C3.27202 15.2745 15.2621 18.3416 15.4666 18.4027C15.6114 18.446 15.6355 18.3845 15.6355 17.9732C15.6355 17.4122 15.8922 16.9591 16.41 16.6062C16.7276 16.3897 16.815 16.3791 18.0485 16.4087C19.2428 16.4373 19.3786 16.4594 19.6764 16.6742C20.0601 16.9509 20.3598 17.5622 20.3628 18.0742C20.3639 18.2755 20.3827 18.4401 20.4043 18.4401C20.4259 18.4401 22.4999 17.9127 25.0131 17.2681C27.5262 16.6236 30.7226 15.8052 32.1161 15.4494L34.6497 14.8027V10.9757C34.6497 7.24234 34.6448 7.14224 34.4482 6.88954C33.9923 6.30374 35.1273 6.3413 18.0292 6.3455C4.7976 6.34872 2.31572 6.37057 2.05241 6.48639ZM33.1536 16.5833C33.0475 16.6207 30.1302 17.3722 26.6709 18.2531L20.3811 19.8548L20.3489 20.8869C20.3205 21.7962 20.288 21.9616 20.0754 22.2786C19.6811 22.8664 19.2313 23.0257 17.9658 23.0257C16.7317 23.0257 16.3028 22.8787 15.909 22.3206C15.7141 22.0442 15.6794 21.8634 15.6517 20.9768C15.634 20.4134 15.5906 19.9215 15.555 19.8839C15.4843 19.8088 2.96259 16.5863 2.74185 16.5863C2.62574 16.5863 2.60547 17.5578 2.60547 23.1282C2.60547 30.2458 2.58616 29.986 3.14742 30.4323L3.40368 30.636H17.9698C33.9867 30.636 32.9009 30.6788 33.2352 30.0337C33.3913 29.7327 33.4015 29.2298 33.3751 23.1121C33.3469 16.5636 33.3452 16.5156 33.1536 16.5833ZM17.0089 19.6806L17.035 21.611H18.0002H18.9654V19.7084V17.8059L17.974 17.7781L16.9826 17.7503L17.0089 19.6806Z" fill="#878E94"/>
</svg>
