<svg width="36" height="36" viewBox="0 0 36 36" fill="none" xmlns="http://www.w3.org/2000/svg">
<path d="M32.9766 15C32.9209 13.0334 32.7339 11.7796 32.1039 10.7096C31.2078 9.18784 29.5941 8.34099 26.3665 6.64728L23.3665 5.07295C20.7331 3.69099 19.4164 3 18 3C16.5836 3 15.2668 3.69099 12.6334 5.07295L9.63343 6.64728C6.40594 8.34099 4.79218 9.18784 3.8961 10.7096C3 12.2314 3 14.125 3 17.9122V18.0878C3 21.875 3 23.7687 3.8961 25.2905C4.79218 26.8122 6.40594 27.659 9.63343 29.3528L12.6334 30.927C15.2668 32.309 16.5836 33 18 33C19.4164 33 20.7331 32.309 23.3665 30.927L26.3665 29.3528C29.5941 27.659 31.2078 26.8122 32.1039 25.2905C32.7339 24.2204 32.9209 22.9667 32.9766 21" stroke="#878E94" stroke-width="2" stroke-linecap="round"/>
<path d="M31.5 11.25L18 18M18 18L4.5 11.25M18 18V32.25" stroke="#878E94" stroke-width="2" stroke-linecap="round"/>
</svg>
