<svg width="36" height="36" viewBox="0 0 36 36" fill="none" xmlns="http://www.w3.org/2000/svg">
<path d="M31.4475 10.5C31.331 7.69155 30.9549 5.96963 29.7426 4.75736C27.9853 3 25.1568 3 19.5 3H16.5C10.8431 3 8.01472 3 6.25735 4.75736C4.5 6.51473 4.5 9.34314 4.5 15V21C4.5 26.6568 4.5 29.4853 6.25735 31.2426C8.01472 33 10.8431 33 16.5 33H19.5C25.1568 33 27.9853 33 29.7426 31.2426C31.5 29.4853 31.5 26.6568 31.5 21V16.5" stroke="#878E94" stroke-width="2.25" stroke-linecap="round"/>
<path d="M9 18C9 15.8787 9 14.818 9.65901 14.159C10.318 13.5 11.3787 13.5 13.5 13.5H22.5C24.6213 13.5 25.6819 13.5 26.341 14.159C27 14.818 27 15.8787 27 18V24C27 26.1213 27 27.1819 26.341 27.841C25.6819 28.5 24.6213 28.5 22.5 28.5H13.5C11.3787 28.5 10.318 28.5 9.65901 27.841C9 27.1819 9 26.1213 9 24V18Z" stroke="#878E94" stroke-width="2.25"/>
<path d="M10.5 9H18" stroke="#878E94" stroke-width="2.25" stroke-linecap="round"/>
</svg>
