<svg width="36" height="36" viewBox="0 0 36 36" fill="none" xmlns="http://www.w3.org/2000/svg">
<path d="M18 4.5C10.5442 4.5 4.5 10.5442 4.5 18C4.5 25.4559 10.5442 31.5 18 31.5C25.4559 31.5 31.5 25.4559 31.5 18C31.5 14.0018 29.7618 10.4095 27 7.93752M12 24L24 12M25.5 22.5C25.5 24.1569 24.1569 25.5 22.5 25.5C20.8431 25.5 19.5 24.1569 19.5 22.5C19.5 20.8431 20.8431 19.5 22.5 19.5C24.1569 19.5 25.5 20.8431 25.5 22.5ZM16.5 13.5C16.5 15.1569 15.1569 16.5 13.5 16.5C11.8431 16.5 10.5 15.1569 10.5 13.5C10.5 11.8431 11.8431 10.5 13.5 10.5C15.1569 10.5 16.5 11.8431 16.5 13.5Z" stroke="#878E94" stroke-width="2" stroke-linecap="round" stroke-linejoin="round"/>
</svg>
