<svg width="36" height="36" viewBox="0 0 36 36" fill="none" xmlns="http://www.w3.org/2000/svg">
<path d="M7.5 33V21M7.5 21L11.206 20.2589C13.6818 19.7637 16.2482 19.9992 18.5924 20.937C21.1328 21.9531 23.9286 22.1428 26.583 21.4792L26.9046 21.3988C27.8422 21.1644 28.5 20.322 28.5 19.3555V8.30504C28.5 7.1342 27.3997 6.27509 26.2638 6.55905C23.817 7.17077 21.2396 6.99584 18.8979 6.05915L18.5924 5.93695C16.2482 4.99926 13.6818 4.76364 11.206 5.25881L7.5 6M7.5 21V16.5M7.5 6V3M7.5 6V10.5" stroke="#878E94" stroke-width="2" stroke-linecap="round"/>
</svg>
