<svg width="36" height="36" viewBox="0 0 36 36" fill="none" xmlns="http://www.w3.org/2000/svg">
<path d="M3.55664 3.9668H9.60937H18.2314H26.6689H32.4434C33.4219 3.9668 34.3125 4.36816 34.957 5.00977C35.6016 5.6543 36 6.54492 36 7.52344V9.6123V26.3848V28.4619C36 29.4404 35.5986 30.3311 34.957 30.9756C34.3125 31.6201 33.4219 32.0186 32.4434 32.0186H26.8184C26.7715 32.0273 26.7217 32.0303 26.6689 32.0303C26.6191 32.0303 26.5693 32.0273 26.5195 32.0186H18.3809C18.334 32.0273 18.2842 32.0303 18.2314 32.0303C18.1816 32.0303 18.1318 32.0273 18.082 32.0186H9.75879C9.71191 32.0273 9.66211 32.0303 9.60937 32.0303C9.55957 32.0303 9.50977 32.0273 9.45996 32.0186H3.55664C2.57813 32.0186 1.6875 31.6172 1.04297 30.9756C0.398437 30.334 0 29.4404 0 28.4619V26.3848V9.6123V7.52344C0 6.54492 0.401367 5.6543 1.04297 5.00977C1.6875 4.36816 2.57813 3.9668 3.55664 3.9668ZM16.1689 13.1191L22.1836 17.3145C22.2773 17.373 22.3623 17.4551 22.4297 17.5518C22.6992 17.9414 22.5996 18.4717 22.2129 18.7412L16.2217 22.8838C16.0752 23.0039 15.8848 23.0771 15.6797 23.0771C15.2051 23.0771 14.8213 22.6934 14.8213 22.2187V13.8193H14.8242C14.8242 13.6494 14.874 13.4795 14.9766 13.3301C15.249 12.9434 15.7822 12.8496 16.1689 13.1191ZM27.5244 27.2432V30.3047H32.4404C32.9473 30.3047 33.4072 30.0967 33.7412 29.7627C34.0752 29.4287 34.2832 28.9688 34.2832 28.4619V27.2432H27.5244ZM25.8105 30.3047V27.2432H19.0898V30.3047H25.8105ZM17.376 30.3047V27.2432H10.4678V30.3047H17.376ZM8.75098 30.3047V27.2432H1.71387V28.4619C1.71387 28.9688 1.92187 29.4287 2.25586 29.7627C2.58984 30.0967 3.0498 30.3047 3.55664 30.3047H8.75098ZM1.71387 25.5293H9.60937H18.2314H26.6689H34.2861V10.4707H26.6689H18.2314H9.60937H1.71387V25.5293ZM25.8105 8.75684V5.68066H19.0898V8.75391H25.8105V8.75684ZM27.5244 5.68066V8.75391H34.2832V7.52344C34.2832 7.0166 34.0752 6.55664 33.7412 6.22266C33.4072 5.88867 32.9473 5.68066 32.4404 5.68066H27.5244ZM17.376 8.75684V5.68066H10.4678V8.75391H17.376V8.75684ZM8.75098 8.75684V5.68066H3.55664C3.0498 5.68066 2.58984 5.88867 2.25586 6.22266C1.92187 6.55664 1.71387 7.0166 1.71387 7.52344V8.75391H8.75098V8.75684Z" fill="#878E94"/>
</svg>
