<svg width="29" height="29" viewBox="0 0 29 29" fill="none" xmlns="http://www.w3.org/2000/svg">
<path d="M15.4063 7.25C15.4063 6.7495 15.0005 6.34375 14.5 6.34375C13.9995 6.34375 13.5938 6.7495 13.5938 7.25V12.0833C13.5938 12.5838 13.9995 12.9896 14.5 12.9896C15.0005 12.9896 15.4063 12.5838 15.4063 12.0833V7.25Z" fill="#878E94"/>
<path fill-rule="evenodd" clip-rule="evenodd" d="M5.13542 10.875C5.13542 5.70304 9.32809 1.51038 14.5 1.51038C19.6719 1.51038 23.8645 5.70304 23.8645 10.875V11.7257C23.8645 12.5678 24.1138 13.3912 24.581 14.0918L25.9689 16.1736C27.5797 18.5899 26.35 21.8742 23.5483 22.6382C22.6353 22.8872 21.7144 23.0979 20.7884 23.2702L20.7861 23.2763C19.8569 25.7557 17.3734 27.4895 14.5 27.4895C11.6265 27.4895 9.14302 25.7557 8.21382 23.2763L8.21153 23.2702C7.28545 23.0979 6.36471 22.8872 5.45168 22.6382C2.65005 21.8742 1.42032 18.5899 3.03114 16.1736L4.41904 14.0918C4.88616 13.3912 5.13542 12.5678 5.13542 11.7257V10.875ZM10.42 23.607C13.1302 23.9309 15.8696 23.931 18.5798 23.6072C17.7208 24.8415 16.2265 25.677 14.5 25.677C12.7733 25.677 11.2791 24.8415 10.42 23.607ZM14.5 3.32288C10.3291 3.32288 6.94792 6.70406 6.94792 10.875V11.7257C6.94792 12.9257 6.59273 14.0988 5.92712 15.0972L4.53923 17.1791C3.61465 18.5659 4.32049 20.451 5.92857 20.8896C11.5404 22.4201 17.4597 22.4201 23.0714 20.8896C24.6796 20.451 25.3854 18.5659 24.4607 17.1791L23.0728 15.0972C22.4073 14.0988 22.052 12.9257 22.052 11.7257V10.875C22.052 6.70406 18.6709 3.32288 14.5 3.32288Z" fill="#878E94"/>
</svg>
